<svg xmlns="http://www.w3.org/2000/svg" xmlns:xlink="http://www.w3.org/1999/xlink" width="321" zoomAndPan="magnify" viewBox="0 0 240.75 289.499996" height="386" preserveAspectRatio="xMidYMid meet" version="1.0"><defs><clipPath id="b262b7c2fd"><path d="M 79 11.652344 L 121 11.652344 L 121 51 L 79 51 Z M 79 11.652344 " clip-rule="nonzero"/></clipPath><clipPath id="5d63b7b0f3"><path d="M 122 11.652344 L 163 11.652344 L 163 51 L 122 51 Z M 122 11.652344 " clip-rule="nonzero"/></clipPath><clipPath id="dd91cb1b6f"><path d="M 43.070312 98 L 70 98 L 70 227 L 43.070312 227 Z M 43.070312 98 " clip-rule="nonzero"/></clipPath><clipPath id="e70df660ca"><path d="M 85.632812 98.824219 L 112.265625 98.824219 L 112.265625 277.632812 L 85.632812 277.632812 Z M 85.632812 98.824219 " clip-rule="nonzero"/></clipPath><clipPath id="d8b6b51122"><path d="M 128.199219 98.824219 L 154.832031 98.824219 L 154.832031 277.632812 L 128.199219 277.632812 Z M 128.199219 98.824219 " clip-rule="nonzero"/></clipPath><clipPath id="1c7aedf74f"><path d="M 171 98.824219 L 197.453125 98.824219 L 197.453125 226.960938 L 171 226.960938 Z M 171 98.824219 " clip-rule="nonzero"/></clipPath></defs><path fill="#001743" d="M 77.601562 55.785156 L 82.398438 70.566406 L 97.917969 70.566406 L 85.363281 79.703125 L 90.15625 94.488281 L 77.601562 85.351562 L 65.046875 94.488281 L 69.84375 79.703125 L 57.289062 70.566406 L 72.808594 70.566406 L 77.601562 55.785156 " fill-opacity="1" fill-rule="nonzero"/><path fill="#001743" d="M 120.261719 55.785156 L 125.058594 70.566406 L 140.574219 70.566406 L 128.019531 79.703125 L 132.816406 94.488281 L 120.261719 85.351562 L 107.707031 94.488281 L 112.503906 79.703125 L 99.949219 70.566406 L 115.46875 70.566406 L 120.261719 55.785156 " fill-opacity="1" fill-rule="nonzero"/><path fill="#001743" d="M 162.921875 55.785156 L 167.71875 70.566406 L 183.238281 70.566406 L 170.683594 79.703125 L 175.476562 94.488281 L 162.921875 85.351562 L 150.367188 94.488281 L 155.164062 79.703125 L 142.609375 70.566406 L 158.125 70.566406 L 162.921875 55.785156 " fill-opacity="1" fill-rule="nonzero"/><g clip-path="url(#b262b7c2fd)"><path fill="#001743" d="M 99.949219 11.726562 L 104.742188 26.511719 L 120.261719 26.511719 L 107.707031 35.648438 L 112.503906 50.433594 L 99.949219 41.292969 L 87.394531 50.433594 L 92.1875 35.648438 L 79.632812 26.511719 L 95.152344 26.511719 L 99.949219 11.726562 " fill-opacity="1" fill-rule="nonzero"/></g><g clip-path="url(#5d63b7b0f3)"><path fill="#001743" d="M 142.609375 11.726562 L 147.40625 26.511719 L 162.921875 26.511719 L 150.367188 35.648438 L 155.164062 50.433594 L 142.609375 41.292969 L 130.054688 50.433594 L 134.851562 35.648438 L 122.296875 26.511719 L 137.8125 26.511719 L 142.609375 11.726562 " fill-opacity="1" fill-rule="nonzero"/></g><g clip-path="url(#dd91cb1b6f)"><path fill="#001743" d="M 43.070312 98.832031 L 43.070312 195.457031 L 69.472656 226.875 L 69.472656 98.832031 L 43.070312 98.832031 " fill-opacity="1" fill-rule="nonzero"/></g><g clip-path="url(#e70df660ca)"><path fill="#001743" d="M 85.730469 98.832031 L 85.730469 246.214844 L 112.132812 277.632812 L 112.132812 98.832031 L 85.730469 98.832031 " fill-opacity="1" fill-rule="nonzero"/></g><g clip-path="url(#d8b6b51122)"><path fill="#001743" d="M 128.390625 98.832031 L 128.390625 277.632812 L 154.796875 246.214844 L 154.796875 98.832031 L 128.390625 98.832031 " fill-opacity="1" fill-rule="nonzero"/></g><g clip-path="url(#1c7aedf74f)"><path fill="#001743" d="M 197.453125 98.832031 L 171.050781 98.832031 L 171.050781 226.875 L 197.453125 195.457031 L 197.453125 98.832031 " fill-opacity="1" fill-rule="nonzero"/></g></svg>