<svg xmlns="http://www.w3.org/2000/svg" xmlns:xlink="http://www.w3.org/1999/xlink" width="572" zoomAndPan="magnify" viewBox="0 0 428.88 113.249998" height="151" preserveAspectRatio="xMidYMid meet" version="1.0"><defs><g/><clipPath id="bb56641ac1"><path d="M 27 16.503906 L 40 16.503906 L 40 29 L 27 29 Z M 27 16.503906 " clip-rule="nonzero"/></clipPath><clipPath id="f4c2d6ceab"><path d="M 40 16.503906 L 53 16.503906 L 53 29 L 40 29 Z M 40 16.503906 " clip-rule="nonzero"/></clipPath><clipPath id="f9ce3feb60"><path d="M 16.679688 42 L 25 42 L 25 81 L 16.679688 81 Z M 16.679688 42 " clip-rule="nonzero"/></clipPath><clipPath id="c4a841ef54"><path d="M 29.414062 42.625 L 37.382812 42.625 L 37.382812 96.203125 L 29.414062 96.203125 Z M 29.414062 42.625 " clip-rule="nonzero"/></clipPath><clipPath id="937e435424"><path d="M 42.148438 42.625 L 50.117188 42.625 L 50.117188 96.203125 L 42.148438 96.203125 Z M 42.148438 42.625 " clip-rule="nonzero"/></clipPath><clipPath id="35e052cbb7"><path d="M 54.953125 42.625 L 62.871094 42.625 L 62.871094 81 L 54.953125 81 Z M 54.953125 42.625 " clip-rule="nonzero"/></clipPath></defs><path fill="#001743" d="M 27.011719 29.726562 L 28.445312 34.15625 L 33.089844 34.15625 L 29.332031 36.894531 L 30.765625 41.324219 L 27.011719 38.585938 L 23.253906 41.324219 L 24.6875 36.894531 L 20.933594 34.15625 L 25.574219 34.15625 L 27.011719 29.726562 " fill-opacity="1" fill-rule="nonzero"/><path fill="#001743" d="M 39.773438 29.726562 L 41.207031 34.15625 L 45.851562 34.15625 L 42.09375 36.894531 L 43.53125 41.324219 L 39.773438 38.585938 L 36.019531 41.324219 L 37.453125 36.894531 L 33.695312 34.15625 L 38.339844 34.15625 L 39.773438 29.726562 " fill-opacity="1" fill-rule="nonzero"/><path fill="#001743" d="M 52.539062 29.726562 L 53.972656 34.15625 L 58.617188 34.15625 L 54.859375 36.894531 L 56.292969 41.324219 L 52.539062 38.585938 L 48.78125 41.324219 L 50.214844 36.894531 L 46.460938 34.15625 L 51.101562 34.15625 L 52.539062 29.726562 " fill-opacity="1" fill-rule="nonzero"/><g clip-path="url(#bb56641ac1)"><path fill="#001743" d="M 33.695312 16.527344 L 35.132812 20.957031 L 39.773438 20.957031 L 36.019531 23.691406 L 37.453125 28.121094 L 33.695312 25.386719 L 29.941406 28.121094 L 31.375 23.691406 L 27.617188 20.957031 L 32.261719 20.957031 L 33.695312 16.527344 " fill-opacity="1" fill-rule="nonzero"/></g><g clip-path="url(#f4c2d6ceab)"><path fill="#001743" d="M 46.460938 16.527344 L 47.894531 20.957031 L 52.539062 20.957031 L 48.78125 23.691406 L 50.214844 28.121094 L 46.460938 25.386719 L 42.703125 28.121094 L 44.140625 23.691406 L 40.382812 20.957031 L 45.027344 20.957031 L 46.460938 16.527344 " fill-opacity="1" fill-rule="nonzero"/></g><g clip-path="url(#f9ce3feb60)"><path fill="#001743" d="M 16.679688 42.625 L 16.679688 71.578125 L 24.578125 80.992188 L 24.578125 42.625 L 16.679688 42.625 " fill-opacity="1" fill-rule="nonzero"/></g><g clip-path="url(#c4a841ef54)"><path fill="#001743" d="M 29.441406 42.625 L 29.441406 86.789062 L 37.34375 96.203125 L 37.34375 42.625 L 29.441406 42.625 " fill-opacity="1" fill-rule="nonzero"/></g><g clip-path="url(#937e435424)"><path fill="#001743" d="M 42.207031 42.625 L 42.207031 96.203125 L 50.105469 86.789062 L 50.105469 42.625 L 42.207031 42.625 " fill-opacity="1" fill-rule="nonzero"/></g><g clip-path="url(#35e052cbb7)"><path fill="#001743" d="M 62.871094 42.625 L 54.96875 42.625 L 54.96875 80.992188 L 62.871094 71.578125 L 62.871094 42.625 " fill-opacity="1" fill-rule="nonzero"/></g><g fill="#001743" fill-opacity="1"><g transform="translate(85.062156, 65.459118)"><g><path d="M 7.25 0 C 8.1875 0 8.4375 -0.3125 9 -1.3125 L 22.878906 -31.878906 L 23.003906 -31.878906 L 29.753906 -17.441406 L 37.070312 -17.441406 L 24.128906 -43.445312 C 23.628906 -44.195312 23.503906 -44.695312 23.003906 -44.695312 L 22.816406 -44.695312 C 22.378906 -44.695312 22.191406 -44.195312 21.753906 -43.445312 L 0.625 -1.3125 C 0.3125 -0.6875 0.6875 0 1.4375 0 Z M 44.382812 0 C 45.195312 0 45.570312 -0.6875 45.257812 -1.3125 L 37.632812 -16.316406 L 17.066406 -16.316406 L 14.128906 -9.875 L 32.753906 -9.875 L 36.882812 -1.3125 C 37.382812 -0.3125 37.695312 0 38.632812 0 Z M 44.382812 0 "/></g></g></g><g fill="#001743" fill-opacity="1"><g transform="translate(126.063948, 65.459118)"><g><path d="M 21.941406 -17.316406 C 29.253906 -17.316406 37.570312 -20.503906 37.570312 -30.628906 C 37.570312 -40.757812 29.253906 -43.757812 21.941406 -43.757812 L 14.066406 -43.757812 L 14.066406 -37.445312 L 21.628906 -37.445312 C 28.128906 -37.445312 30.253906 -34.445312 30.253906 -30.628906 C 30.253906 -26.691406 28.128906 -23.628906 21.628906 -23.628906 L 14.066406 -23.628906 L 14.066406 -17.316406 Z M 11.691406 0 C 12.691406 0 12.941406 -0.3125 13.003906 -1.3125 L 13.003906 -43.757812 L 6.75 -43.757812 C 5.75 -43.757812 5.4375 -43.507812 5.4375 -42.445312 L 5.4375 -1.3125 C 5.4375 -0.3125 5.6875 0 6.75 0 Z M 11.691406 0 "/></g></g></g><g fill="#001743" fill-opacity="1"><g transform="translate(160.127792, 65.459118)"><g><path d="M 5.3125 -1.3125 C 5.3125 -0.3125 5.625 0 6.6875 0 L 12.878906 0 L 12.878906 -43.757812 L 6.6875 -43.757812 C 5.6875 -43.757812 5.3125 -43.445312 5.3125 -42.445312 Z M 14.003906 -43.757812 L 14.003906 -37.257812 L 34.757812 -37.257812 C 35.757812 -37.257812 36.132812 -37.632812 36.132812 -38.632812 L 36.132812 -42.445312 C 36.132812 -43.445312 35.757812 -43.757812 34.757812 -43.757812 Z M 36.132812 -5.125 C 36.132812 -6.1875 35.820312 -6.4375 34.757812 -6.4375 L 14.003906 -6.4375 L 14.003906 0 L 34.757812 0 C 35.820312 0 36.132812 -0.3125 36.132812 -1.3125 Z M 14.003906 -25.253906 L 14.003906 -18.816406 L 33.820312 -18.816406 C 34.882812 -18.816406 35.132812 -19.128906 35.132812 -20.128906 L 35.132812 -23.941406 C 35.132812 -25.003906 34.882812 -25.253906 33.820312 -25.253906 Z M 14.003906 -25.253906 "/></g></g></g><g fill="#001743" fill-opacity="1"><g transform="translate(195.191687, 65.459118)"><g><path d="M 21.941406 -25.066406 C 15.566406 -25.878906 11.128906 -26.816406 11.128906 -31.003906 C 11.128906 -33.945312 12.691406 -37.507812 19.378906 -37.820312 L 19.378906 -44.445312 C 7.75 -44.257812 3.8125 -36.070312 3.8125 -30.753906 C 3.8125 -22.066406 11.566406 -19.691406 18.378906 -18.816406 C 25.378906 -17.878906 29.566406 -16.691406 29.566406 -12.191406 C 29.566406 -7.875 25.941406 -5.9375 20.191406 -5.9375 L 20.191406 0.6875 L 20.816406 0.6875 C 31.566406 0.6875 36.882812 -5.875 36.882812 -12.503906 C 36.882812 -21.753906 29.566406 -24.128906 21.941406 -25.066406 Z M 3.75 -4.0625 C 8 -1.125 13.316406 0.5 19.066406 0.6875 L 19.066406 -5.9375 C 15.441406 -6.0625 10.875 -7.1875 7.125 -9.625 C 6.8125 -9.875 6.5 -9.9375 6.3125 -9.9375 C 5.875 -9.9375 5.625 -9.625 5.3125 -9.0625 L 3.375 -5.9375 C 2.9375 -5.0625 2.8125 -4.625 3.75 -4.0625 Z M 20.503906 -37.820312 C 25.066406 -37.820312 28.191406 -36.632812 31.941406 -34.132812 C 32.253906 -33.945312 32.503906 -33.820312 32.691406 -33.820312 C 33.128906 -33.820312 33.445312 -34.195312 33.757812 -34.757812 L 35.632812 -37.820312 C 36.070312 -38.695312 36.195312 -39.195312 35.320312 -39.695312 C 30.878906 -42.445312 26.816406 -44.320312 20.503906 -44.445312 Z M 20.503906 -37.820312 "/></g></g></g><g fill="#001743" fill-opacity="1"><g transform="translate(230.443109, 65.459118)"><g/></g></g><g fill="#001743" fill-opacity="1"><g transform="translate(241.505442, 65.459118)"><g><path d="M 7.25 0 C 8.1875 0 8.4375 -0.3125 9 -1.3125 L 22.878906 -31.878906 L 23.003906 -31.878906 L 29.753906 -17.441406 L 37.070312 -17.441406 L 24.128906 -43.445312 C 23.628906 -44.195312 23.503906 -44.695312 23.003906 -44.695312 L 22.816406 -44.695312 C 22.378906 -44.695312 22.191406 -44.195312 21.753906 -43.445312 L 0.625 -1.3125 C 0.3125 -0.6875 0.6875 0 1.4375 0 Z M 44.382812 0 C 45.195312 0 45.570312 -0.6875 45.257812 -1.3125 L 37.632812 -16.316406 L 17.066406 -16.316406 L 14.128906 -9.875 L 32.753906 -9.875 L 36.882812 -1.3125 C 37.382812 -0.3125 37.695312 0 38.632812 0 Z M 44.382812 0 "/></g></g></g><g fill="#001743" fill-opacity="1"><g transform="translate(282.507239, 65.459118)"><g><path d="M 30.253906 -30.628906 C 30.253906 -26.691406 28.191406 -23.628906 21.691406 -23.628906 L 14.066406 -23.628906 L 14.066406 -17.316406 L 22.003906 -17.316406 C 29.316406 -17.316406 37.570312 -20.503906 37.570312 -30.628906 C 37.570312 -40.757812 29.128906 -43.757812 22.003906 -43.757812 L 14.066406 -43.757812 L 14.066406 -37.445312 L 21.691406 -37.445312 C 27.066406 -37.445312 30.253906 -35.382812 30.253906 -30.628906 Z M 11.691406 0 C 12.691406 0 13.003906 -0.25 13.003906 -1.3125 L 13.003906 -43.757812 L 6.75 -43.757812 C 5.75 -43.757812 5.4375 -43.445312 5.4375 -42.445312 L 5.4375 -1.3125 C 5.4375 -0.25 5.75 0 6.75 0 Z M 21.066406 -16.253906 L 31.191406 -1.3125 C 31.816406 -0.4375 32.441406 0 33.507812 0 L 38.132812 0 C 39.195312 0 40.007812 -0.5625 39.257812 -1.6875 L 28.753906 -17.066406 C 27.191406 -16.503906 25.503906 -16.253906 22.941406 -16.253906 Z M 21.066406 -16.253906 "/></g></g></g><g fill="#001743" fill-opacity="1"><g transform="translate(319.196247, 65.459118)"><g><path d="M 30.753906 -10.25 L 10.5625 -44.007812 C 10.3125 -44.445312 10.0625 -44.570312 9.8125 -44.570312 L 8.8125 -44.570312 L 7.8125 -35.820312 L 29.003906 -0.5 C 29.503906 0.3125 29.878906 0.8125 30.378906 0.8125 L 31.066406 0.8125 C 31.566406 0.8125 31.941406 0.3125 32.503906 -0.5 L 53.695312 -35.820312 L 52.507812 -44.570312 L 51.695312 -44.570312 C 51.445312 -44.570312 51.195312 -44.445312 50.945312 -44.007812 Z M 9.8125 0 C 10.8125 0 11 -0.25 11.128906 -1.3125 L 13.691406 -23.941406 L 7.5625 -34.132812 L 3.5625 -1.3125 C 3.4375 -0.375 3.875 0 4.875 0 Z M 50.382812 -1.3125 C 50.445312 -0.25 50.695312 0 51.695312 0 L 56.636719 0 C 57.636719 0 58.074219 -0.375 57.949219 -1.3125 L 53.882812 -34.070312 L 47.757812 -23.878906 Z M 50.382812 -1.3125 "/></g></g></g><g fill="#001743" fill-opacity="1"><g transform="translate(375.886568, 65.459118)"><g><path d="M 16.628906 -16.503906 L 16.628906 -1.3125 C 16.628906 -0.3125 16.941406 0 17.941406 0 L 22.628906 0 C 23.691406 0 23.941406 -0.3125 23.941406 -1.3125 L 23.941406 -16.503906 L 24.066406 -16.691406 L 8.6875 -42.445312 C 8.125 -43.445312 7.8125 -43.757812 6.9375 -43.757812 L 1.25 -43.757812 C 0.3125 -43.757812 0.0625 -43.445312 0.625 -42.445312 Z M 39.945312 -42.445312 C 40.507812 -43.445312 40.257812 -43.757812 39.320312 -43.757812 L 33.757812 -43.757812 C 32.878906 -43.757812 32.628906 -43.445312 32.003906 -42.445312 L 20.816406 -24.128906 L 24.628906 -17.691406 Z M 39.945312 -42.445312 "/></g></g></g><g fill="#001743" fill-opacity="1"><g transform="translate(85.993489, 93.02655)"><g><path d="M 10.65625 -3.550781 L 3.660156 -15.246094 C 3.574219 -15.398438 3.488281 -15.441406 3.402344 -15.441406 L 3.054688 -15.441406 L 2.707031 -12.410156 L 10.050781 -0.171875 C 10.222656 0.109375 10.351562 0.28125 10.527344 0.28125 L 10.765625 0.28125 C 10.9375 0.28125 11.066406 0.109375 11.261719 -0.171875 L 18.605469 -12.410156 L 18.195312 -15.441406 L 17.910156 -15.441406 C 17.824219 -15.441406 17.738281 -15.398438 17.652344 -15.246094 Z M 3.402344 0 C 3.746094 0 3.8125 -0.0859375 3.855469 -0.453125 L 4.742188 -8.296875 L 2.621094 -11.824219 L 1.234375 -0.453125 C 1.191406 -0.128906 1.34375 0 1.6875 0 Z M 17.457031 -0.453125 C 17.480469 -0.0859375 17.566406 0 17.910156 0 L 19.625 0 C 19.96875 0 20.121094 -0.128906 20.078125 -0.453125 L 18.671875 -11.804688 L 16.546875 -8.273438 Z M 17.457031 -0.453125 "/></g></g></g><g fill="#001743" fill-opacity="1"><g transform="translate(106.542356, 93.02655)"><g><path d="M 1.925781 -0.453125 C 1.925781 -0.109375 2.035156 0 2.382812 0 L 4.09375 0 C 4.441406 0 4.546875 -0.109375 4.546875 -0.453125 L 4.546875 -14.707031 C 4.546875 -15.054688 4.460938 -15.160156 4.09375 -15.160156 L 2.382812 -15.160156 C 2.035156 -15.160156 1.925781 -15.054688 1.925781 -14.707031 Z M 1.925781 -0.453125 "/></g></g></g><g fill="#001743" fill-opacity="1"><g transform="translate(112.280246, 93.02655)"><g><path d="M 4.503906 -14.707031 C 4.503906 -15.054688 4.398438 -15.160156 4.050781 -15.160156 L 2.339844 -15.160156 C 1.992188 -15.160156 1.882812 -15.054688 1.882812 -14.707031 L 1.882812 -0.453125 C 1.882812 -0.109375 1.992188 0 2.339844 0 L 4.503906 0 Z M 11.21875 0 C 11.566406 0 11.675781 -0.109375 11.675781 -0.453125 L 11.675781 -1.777344 C 11.675781 -2.144531 11.566406 -2.230469 11.21875 -2.230469 L 4.875 -2.230469 L 4.875 0 Z M 11.21875 0 "/></g></g></g><g fill="#001743" fill-opacity="1"><g transform="translate(123.907877, 93.02655)"><g><path d="M 1.925781 -0.453125 C 1.925781 -0.109375 2.035156 0 2.382812 0 L 4.09375 0 C 4.441406 0 4.546875 -0.109375 4.546875 -0.453125 L 4.546875 -14.707031 C 4.546875 -15.054688 4.460938 -15.160156 4.09375 -15.160156 L 2.382812 -15.160156 C 2.035156 -15.160156 1.925781 -15.054688 1.925781 -14.707031 Z M 1.925781 -0.453125 "/></g></g></g><g fill="#001743" fill-opacity="1"><g transform="translate(129.645765, 93.02655)"><g><path d="M 5.414062 -12.820312 L 5.414062 -0.453125 C 5.414062 -0.109375 5.5 0 5.871094 0 L 7.558594 0 C 7.925781 0 8.035156 -0.109375 8.035156 -0.453125 L 8.035156 -15.160156 L 0.671875 -15.160156 C 0.324219 -15.160156 0.214844 -15.054688 0.214844 -14.707031 L 0.214844 -13.277344 C 0.214844 -12.929688 0.304688 -12.820312 0.671875 -12.820312 Z M 12.757812 -12.820312 C 13.105469 -12.820312 13.210938 -12.910156 13.210938 -13.277344 L 13.210938 -14.707031 C 13.210938 -15.054688 13.125 -15.160156 12.757812 -15.160156 L 8.402344 -15.160156 L 8.402344 -12.820312 Z M 12.757812 -12.820312 "/></g></g></g><g fill="#001743" fill-opacity="1"><g transform="translate(142.334413, 93.02655)"><g><path d="M 2.511719 0 C 2.835938 0 2.925781 -0.109375 3.117188 -0.453125 L 7.925781 -11.046875 L 7.96875 -11.046875 L 10.308594 -6.042969 L 12.84375 -6.042969 L 8.359375 -15.054688 C 8.1875 -15.3125 8.144531 -15.484375 7.96875 -15.484375 L 7.90625 -15.484375 C 7.753906 -15.484375 7.6875 -15.3125 7.539062 -15.054688 L 0.214844 -0.453125 C 0.109375 -0.238281 0.238281 0 0.5 0 Z M 15.378906 0 C 15.660156 0 15.789062 -0.238281 15.679688 -0.453125 L 13.039062 -5.652344 L 5.914062 -5.652344 L 4.894531 -3.421875 L 11.347656 -3.421875 L 12.777344 -0.453125 C 12.953125 -0.109375 13.058594 0 13.386719 0 Z M 15.378906 0 "/></g></g></g><g fill="#001743" fill-opacity="1"><g transform="translate(157.448256, 93.02655)"><g><path d="M 10.484375 -10.613281 C 10.484375 -9.25 9.769531 -8.1875 7.515625 -8.1875 L 4.875 -8.1875 L 4.875 -6 L 7.625 -6 C 10.15625 -6 13.015625 -7.105469 13.015625 -10.613281 C 13.015625 -14.121094 10.09375 -15.160156 7.625 -15.160156 L 4.875 -15.160156 L 4.875 -12.972656 L 7.515625 -12.972656 C 9.378906 -12.972656 10.484375 -12.257812 10.484375 -10.613281 Z M 4.050781 0 C 4.398438 0 4.503906 -0.0859375 4.503906 -0.453125 L 4.503906 -15.160156 L 2.339844 -15.160156 C 1.992188 -15.160156 1.882812 -15.054688 1.882812 -14.707031 L 1.882812 -0.453125 C 1.882812 -0.0859375 1.992188 0 2.339844 0 Z M 7.300781 -5.632812 L 10.808594 -0.453125 C 11.023438 -0.152344 11.242188 0 11.609375 0 L 13.210938 0 C 13.582031 0 13.863281 -0.195312 13.601562 -0.585938 L 9.964844 -5.914062 C 9.421875 -5.71875 8.835938 -5.632812 7.949219 -5.632812 Z M 7.300781 -5.632812 "/></g></g></g><g fill="#001743" fill-opacity="1"><g transform="translate(171.068012, 93.02655)"><g><path d="M 5.761719 -5.71875 L 5.761719 -0.453125 C 5.761719 -0.109375 5.871094 0 6.214844 0 L 7.839844 0 C 8.207031 0 8.296875 -0.109375 8.296875 -0.453125 L 8.296875 -5.71875 L 8.339844 -5.78125 L 3.011719 -14.707031 C 2.816406 -15.054688 2.707031 -15.160156 2.402344 -15.160156 L 0.433594 -15.160156 C 0.109375 -15.160156 0.0234375 -15.054688 0.214844 -14.707031 Z M 13.839844 -14.707031 C 14.035156 -15.054688 13.949219 -15.160156 13.625 -15.160156 L 11.695312 -15.160156 C 11.394531 -15.160156 11.304688 -15.054688 11.089844 -14.707031 L 7.210938 -8.359375 L 8.535156 -6.128906 Z M 13.839844 -14.707031 "/></g></g></g><g fill="#001743" fill-opacity="1"><g transform="translate(184.36296, 93.02655)"><g><path d="M 1.34375 -1.40625 C 1.34375 -0.476562 2.058594 0.238281 2.988281 0.238281 C 3.921875 0.238281 4.679688 -0.476562 4.679688 -1.40625 C 4.679688 -2.339844 3.921875 -3.074219 2.988281 -3.074219 C 2.058594 -3.074219 1.34375 -2.339844 1.34375 -1.40625 Z M 1.34375 -1.40625 "/></g></g></g><g fill="#001743" fill-opacity="1"><g transform="translate(189.646122, 93.02655)"><g><path d="M 10.65625 -3.550781 L 3.660156 -15.246094 C 3.574219 -15.398438 3.488281 -15.441406 3.402344 -15.441406 L 3.054688 -15.441406 L 2.707031 -12.410156 L 10.050781 -0.171875 C 10.222656 0.109375 10.351562 0.28125 10.527344 0.28125 L 10.765625 0.28125 C 10.9375 0.28125 11.066406 0.109375 11.261719 -0.171875 L 18.605469 -12.410156 L 18.195312 -15.441406 L 17.910156 -15.441406 C 17.824219 -15.441406 17.738281 -15.398438 17.652344 -15.246094 Z M 3.402344 0 C 3.746094 0 3.8125 -0.0859375 3.855469 -0.453125 L 4.742188 -8.296875 L 2.621094 -11.824219 L 1.234375 -0.453125 C 1.191406 -0.128906 1.34375 0 1.6875 0 Z M 17.457031 -0.453125 C 17.480469 -0.0859375 17.566406 0 17.910156 0 L 19.625 0 C 19.96875 0 20.121094 -0.128906 20.078125 -0.453125 L 18.671875 -11.804688 L 16.546875 -8.273438 Z M 17.457031 -0.453125 "/></g></g></g><g fill="#001743" fill-opacity="1"><g transform="translate(210.194991, 93.02655)"><g><path d="M 2.511719 0 C 2.835938 0 2.925781 -0.109375 3.117188 -0.453125 L 7.925781 -11.046875 L 7.96875 -11.046875 L 10.308594 -6.042969 L 12.84375 -6.042969 L 8.359375 -15.054688 C 8.1875 -15.3125 8.144531 -15.484375 7.96875 -15.484375 L 7.90625 -15.484375 C 7.753906 -15.484375 7.6875 -15.3125 7.539062 -15.054688 L 0.214844 -0.453125 C 0.109375 -0.238281 0.238281 0 0.5 0 Z M 15.378906 0 C 15.660156 0 15.789062 -0.238281 15.679688 -0.453125 L 13.039062 -5.652344 L 5.914062 -5.652344 L 4.894531 -3.421875 L 11.347656 -3.421875 L 12.777344 -0.453125 C 12.953125 -0.109375 13.058594 0 13.386719 0 Z M 15.378906 0 "/></g></g></g><g fill="#001743" fill-opacity="1"><g transform="translate(225.308834, 93.02655)"><g><path d="M 10.484375 -10.613281 C 10.484375 -9.25 9.769531 -8.1875 7.515625 -8.1875 L 4.875 -8.1875 L 4.875 -6 L 7.625 -6 C 10.15625 -6 13.015625 -7.105469 13.015625 -10.613281 C 13.015625 -14.121094 10.09375 -15.160156 7.625 -15.160156 L 4.875 -15.160156 L 4.875 -12.972656 L 7.515625 -12.972656 C 9.378906 -12.972656 10.484375 -12.257812 10.484375 -10.613281 Z M 4.050781 0 C 4.398438 0 4.503906 -0.0859375 4.503906 -0.453125 L 4.503906 -15.160156 L 2.339844 -15.160156 C 1.992188 -15.160156 1.882812 -15.054688 1.882812 -14.707031 L 1.882812 -0.453125 C 1.882812 -0.0859375 1.992188 0 2.339844 0 Z M 7.300781 -5.632812 L 10.808594 -0.453125 C 11.023438 -0.152344 11.242188 0 11.609375 0 L 13.210938 0 C 13.582031 0 13.863281 -0.195312 13.601562 -0.585938 L 9.964844 -5.914062 C 9.421875 -5.71875 8.835938 -5.632812 7.949219 -5.632812 Z M 7.300781 -5.632812 "/></g></g></g><g fill="#001743" fill-opacity="1"><g transform="translate(238.92859, 93.02655)"><g><path d="M 1.925781 -0.453125 C 1.925781 -0.109375 2.035156 0 2.382812 0 L 4.09375 0 C 4.441406 0 4.546875 -0.109375 4.546875 -0.453125 L 4.546875 -14.707031 C 4.546875 -15.054688 4.460938 -15.160156 4.09375 -15.160156 L 2.382812 -15.160156 C 2.035156 -15.160156 1.925781 -15.054688 1.925781 -14.707031 Z M 1.925781 -0.453125 "/></g></g></g><g fill="#001743" fill-opacity="1"><g transform="translate(244.666481, 93.02655)"><g><path d="M 14.683594 0.28125 C 14.835938 0.28125 14.878906 0.238281 14.878906 0.0859375 L 14.878906 -2.664062 L 2.621094 -15.269531 C 2.511719 -15.378906 2.402344 -15.441406 2.273438 -15.441406 L 2.101562 -15.441406 C 1.949219 -15.441406 1.90625 -15.398438 1.90625 -15.246094 L 1.90625 -12.628906 L 14.164062 0.109375 C 14.296875 0.214844 14.402344 0.28125 14.535156 0.28125 Z M 4.070312 0 C 4.417969 0 4.527344 -0.109375 4.527344 -0.453125 L 4.527344 -9.355469 L 1.90625 -12.085938 L 1.90625 -0.453125 C 1.90625 -0.109375 2.035156 0 2.382812 0 Z M 12.714844 -15.160156 C 12.367188 -15.160156 12.257812 -15.054688 12.257812 -14.707031 L 12.257812 -5.890625 L 14.878906 -3.207031 L 14.878906 -14.707031 C 14.878906 -15.054688 14.769531 -15.160156 14.425781 -15.160156 Z M 12.714844 -15.160156 "/></g></g></g><g fill="#001743" fill-opacity="1"><g transform="translate(260.733075, 93.02655)"><g><path d="M 1.839844 -0.453125 C 1.839844 -0.109375 1.949219 0 2.316406 0 L 4.460938 0 L 4.460938 -15.160156 L 2.316406 -15.160156 C 1.972656 -15.160156 1.839844 -15.054688 1.839844 -14.707031 Z M 4.851562 -15.160156 L 4.851562 -12.910156 L 12.042969 -12.910156 C 12.390625 -12.910156 12.519531 -13.039062 12.519531 -13.386719 L 12.519531 -14.707031 C 12.519531 -15.054688 12.390625 -15.160156 12.042969 -15.160156 Z M 12.519531 -1.777344 C 12.519531 -2.144531 12.410156 -2.230469 12.042969 -2.230469 L 4.851562 -2.230469 L 4.851562 0 L 12.042969 0 C 12.410156 0 12.519531 -0.109375 12.519531 -0.453125 Z M 4.851562 -8.75 L 4.851562 -6.519531 L 11.71875 -6.519531 C 12.085938 -6.519531 12.171875 -6.628906 12.171875 -6.972656 L 12.171875 -8.296875 C 12.171875 -8.664062 12.085938 -8.75 11.71875 -8.75 Z M 4.851562 -8.75 "/></g></g></g><g fill="#001743" fill-opacity="1"><g transform="translate(273.789835, 93.02655)"><g><path d="M 7.601562 -8.683594 C 5.394531 -8.96875 3.855469 -9.292969 3.855469 -10.742188 C 3.855469 -11.761719 4.398438 -12.996094 6.714844 -13.105469 L 6.714844 -15.398438 C 2.6875 -15.335938 1.320312 -12.496094 1.320312 -10.65625 C 1.320312 -7.644531 4.007812 -6.824219 6.367188 -6.519531 C 8.792969 -6.195312 10.246094 -5.78125 10.246094 -4.222656 C 10.246094 -2.730469 8.988281 -2.058594 6.996094 -2.058594 L 6.996094 0.238281 L 7.210938 0.238281 C 10.9375 0.238281 12.777344 -2.035156 12.777344 -4.332031 C 12.777344 -7.539062 10.246094 -8.359375 7.601562 -8.683594 Z M 1.300781 -1.40625 C 2.773438 -0.390625 4.613281 0.171875 6.605469 0.238281 L 6.605469 -2.058594 C 5.351562 -2.101562 3.769531 -2.492188 2.46875 -3.335938 C 2.359375 -3.421875 2.253906 -3.445312 2.1875 -3.445312 C 2.035156 -3.445312 1.949219 -3.335938 1.839844 -3.140625 L 1.167969 -2.058594 C 1.019531 -1.753906 0.976562 -1.601562 1.300781 -1.40625 Z M 7.105469 -13.105469 C 8.683594 -13.105469 9.769531 -12.691406 11.066406 -11.824219 C 11.175781 -11.761719 11.261719 -11.71875 11.328125 -11.71875 C 11.480469 -11.71875 11.585938 -11.847656 11.695312 -12.042969 L 12.34375 -13.105469 C 12.496094 -13.40625 12.539062 -13.582031 12.238281 -13.753906 C 10.699219 -14.707031 9.292969 -15.355469 7.105469 -15.398438 Z M 7.105469 -13.105469 "/></g></g></g><g fill="#001743" fill-opacity="1"><g transform="translate(286.911558, 93.02655)"><g><path d="M 1.34375 -1.40625 C 1.34375 -0.476562 2.058594 0.238281 2.988281 0.238281 C 3.921875 0.238281 4.679688 -0.476562 4.679688 -1.40625 C 4.679688 -2.339844 3.921875 -3.074219 2.988281 -3.074219 C 2.058594 -3.074219 1.34375 -2.339844 1.34375 -1.40625 Z M 1.34375 -1.40625 "/></g></g></g><g fill="#001743" fill-opacity="1"><g transform="translate(292.194708, 93.02655)"><g><path d="M 2.511719 0 C 2.835938 0 2.925781 -0.109375 3.117188 -0.453125 L 7.925781 -11.046875 L 7.96875 -11.046875 L 10.308594 -6.042969 L 12.84375 -6.042969 L 8.359375 -15.054688 C 8.1875 -15.3125 8.144531 -15.484375 7.96875 -15.484375 L 7.90625 -15.484375 C 7.753906 -15.484375 7.6875 -15.3125 7.539062 -15.054688 L 0.214844 -0.453125 C 0.109375 -0.238281 0.238281 0 0.5 0 Z M 15.378906 0 C 15.660156 0 15.789062 -0.238281 15.679688 -0.453125 L 13.039062 -5.652344 L 5.914062 -5.652344 L 4.894531 -3.421875 L 11.347656 -3.421875 L 12.777344 -0.453125 C 12.953125 -0.109375 13.058594 0 13.386719 0 Z M 15.378906 0 "/></g></g></g><g fill="#001743" fill-opacity="1"><g transform="translate(307.308551, 93.02655)"><g><path d="M 1.925781 -0.453125 C 1.925781 -0.109375 2.035156 0 2.382812 0 L 4.09375 0 C 4.441406 0 4.546875 -0.109375 4.546875 -0.453125 L 4.546875 -14.707031 C 4.546875 -15.054688 4.460938 -15.160156 4.09375 -15.160156 L 2.382812 -15.160156 C 2.035156 -15.160156 1.925781 -15.054688 1.925781 -14.707031 Z M 1.925781 -0.453125 "/></g></g></g><g fill="#001743" fill-opacity="1"><g transform="translate(313.046431, 93.02655)"><g><path d="M 10.484375 -10.613281 C 10.484375 -9.25 9.769531 -8.1875 7.515625 -8.1875 L 4.875 -8.1875 L 4.875 -6 L 7.625 -6 C 10.15625 -6 13.015625 -7.105469 13.015625 -10.613281 C 13.015625 -14.121094 10.09375 -15.160156 7.625 -15.160156 L 4.875 -15.160156 L 4.875 -12.972656 L 7.515625 -12.972656 C 9.378906 -12.972656 10.484375 -12.257812 10.484375 -10.613281 Z M 4.050781 0 C 4.398438 0 4.503906 -0.0859375 4.503906 -0.453125 L 4.503906 -15.160156 L 2.339844 -15.160156 C 1.992188 -15.160156 1.882812 -15.054688 1.882812 -14.707031 L 1.882812 -0.453125 C 1.882812 -0.0859375 1.992188 0 2.339844 0 Z M 7.300781 -5.632812 L 10.808594 -0.453125 C 11.023438 -0.152344 11.242188 0 11.609375 0 L 13.210938 0 C 13.582031 0 13.863281 -0.195312 13.601562 -0.585938 L 9.964844 -5.914062 C 9.421875 -5.71875 8.835938 -5.632812 7.949219 -5.632812 Z M 7.300781 -5.632812 "/></g></g></g><g fill="#001743" fill-opacity="1"><g transform="translate(326.666186, 93.02655)"><g><path d="M 4.050781 0 C 4.398438 0 4.503906 -0.109375 4.503906 -0.453125 L 4.503906 -15.160156 L 2.339844 -15.160156 C 1.992188 -15.160156 1.882812 -15.054688 1.882812 -14.707031 L 1.882812 -0.453125 C 1.882812 -0.109375 1.992188 0 2.339844 0 Z M 12.539062 -14.707031 C 12.539062 -15.054688 12.433594 -15.160156 12.0625 -15.160156 L 4.875 -15.160156 L 4.875 -12.910156 L 12.0625 -12.910156 C 12.433594 -12.910156 12.539062 -13.039062 12.539062 -13.386719 Z M 12.324219 -8.296875 C 12.324219 -8.640625 12.238281 -8.75 11.871094 -8.75 L 4.875 -8.75 L 4.875 -6.519531 L 11.871094 -6.519531 C 12.214844 -6.519531 12.324219 -6.628906 12.324219 -6.972656 Z M 12.324219 -8.296875 "/></g></g></g><g fill="#001743" fill-opacity="1"><g transform="translate(339.419798, 93.02655)"><g><path d="M 8.578125 -2.015625 C 5.632812 -2.144531 3.640625 -4.851562 3.640625 -7.582031 C 3.640625 -10.308594 5.609375 -13.015625 8.578125 -13.148438 L 8.578125 -15.441406 C 4.351562 -15.335938 0.996094 -11.761719 0.996094 -7.582031 C 0.996094 -3.402344 4.308594 0.152344 8.578125 0.28125 Z M 8.96875 -13.148438 C 11.976562 -13.015625 13.90625 -10.308594 13.90625 -7.582031 C 13.90625 -4.851562 11.976562 -2.144531 8.96875 -2.015625 L 8.96875 0.28125 C 13.210938 0.152344 16.546875 -3.402344 16.546875 -7.582031 C 16.546875 -11.761719 13.191406 -15.335938 8.96875 -15.441406 Z M 8.96875 -13.148438 "/></g></g></g><g fill="#001743" fill-opacity="1"><g transform="translate(356.222613, 93.02655)"><g><path d="M 10.484375 -10.613281 C 10.484375 -9.25 9.769531 -8.1875 7.515625 -8.1875 L 4.875 -8.1875 L 4.875 -6 L 7.625 -6 C 10.15625 -6 13.015625 -7.105469 13.015625 -10.613281 C 13.015625 -14.121094 10.09375 -15.160156 7.625 -15.160156 L 4.875 -15.160156 L 4.875 -12.972656 L 7.515625 -12.972656 C 9.378906 -12.972656 10.484375 -12.257812 10.484375 -10.613281 Z M 4.050781 0 C 4.398438 0 4.503906 -0.0859375 4.503906 -0.453125 L 4.503906 -15.160156 L 2.339844 -15.160156 C 1.992188 -15.160156 1.882812 -15.054688 1.882812 -14.707031 L 1.882812 -0.453125 C 1.882812 -0.0859375 1.992188 0 2.339844 0 Z M 7.300781 -5.632812 L 10.808594 -0.453125 C 11.023438 -0.152344 11.242188 0 11.609375 0 L 13.210938 0 C 13.582031 0 13.863281 -0.195312 13.601562 -0.585938 L 9.964844 -5.914062 C 9.421875 -5.71875 8.835938 -5.632812 7.949219 -5.632812 Z M 7.300781 -5.632812 "/></g></g></g><g fill="#001743" fill-opacity="1"><g transform="translate(369.842369, 93.02655)"><g><path d="M 8.640625 -2.015625 C 5.609375 -2.078125 3.640625 -4.875 3.640625 -7.582031 C 3.640625 -10.308594 5.632812 -13.058594 8.640625 -13.148438 L 8.640625 -15.441406 C 4.308594 -15.335938 0.996094 -11.761719 0.996094 -7.582031 C 0.996094 -3.402344 4.289062 0.171875 8.640625 0.28125 Z M 13.429688 -3.703125 C 13.296875 -3.832031 13.191406 -3.921875 13.082031 -3.921875 C 12.996094 -3.921875 12.886719 -3.855469 12.777344 -3.746094 C 11.847656 -2.75 10.546875 -2.078125 9.011719 -2.015625 L 9.011719 0.28125 C 11.046875 0.214844 13.125 -0.648438 14.445312 -1.949219 C 14.707031 -2.210938 14.664062 -2.339844 14.425781 -2.621094 Z M 14.445312 -13.210938 C 13.148438 -14.511719 11.023438 -15.378906 9.011719 -15.441406 L 9.011719 -13.148438 C 10.527344 -13.105469 11.847656 -12.410156 12.757812 -11.4375 C 12.886719 -11.304688 12.972656 -11.261719 13.058594 -11.261719 C 13.167969 -11.261719 13.277344 -11.347656 13.40625 -11.480469 L 14.402344 -12.5625 C 14.640625 -12.820312 14.683594 -12.972656 14.445312 -13.210938 Z M 14.445312 -13.210938 "/></g></g></g><g fill="#001743" fill-opacity="1"><g transform="translate(384.523129, 93.02655)"><g><path d="M 1.839844 -0.453125 C 1.839844 -0.109375 1.949219 0 2.316406 0 L 4.460938 0 L 4.460938 -15.160156 L 2.316406 -15.160156 C 1.972656 -15.160156 1.839844 -15.054688 1.839844 -14.707031 Z M 4.851562 -15.160156 L 4.851562 -12.910156 L 12.042969 -12.910156 C 12.390625 -12.910156 12.519531 -13.039062 12.519531 -13.386719 L 12.519531 -14.707031 C 12.519531 -15.054688 12.390625 -15.160156 12.042969 -15.160156 Z M 12.519531 -1.777344 C 12.519531 -2.144531 12.410156 -2.230469 12.042969 -2.230469 L 4.851562 -2.230469 L 4.851562 0 L 12.042969 0 C 12.410156 0 12.519531 -0.109375 12.519531 -0.453125 Z M 4.851562 -8.75 L 4.851562 -6.519531 L 11.71875 -6.519531 C 12.085938 -6.519531 12.171875 -6.628906 12.171875 -6.972656 L 12.171875 -8.296875 C 12.171875 -8.664062 12.085938 -8.75 11.71875 -8.75 Z M 4.851562 -8.75 "/></g></g></g><g fill="#001743" fill-opacity="1"><g transform="translate(397.579878, 93.02655)"><g><path d="M 7.601562 -8.683594 C 5.394531 -8.96875 3.855469 -9.292969 3.855469 -10.742188 C 3.855469 -11.761719 4.398438 -12.996094 6.714844 -13.105469 L 6.714844 -15.398438 C 2.6875 -15.335938 1.320312 -12.496094 1.320312 -10.65625 C 1.320312 -7.644531 4.007812 -6.824219 6.367188 -6.519531 C 8.792969 -6.195312 10.246094 -5.78125 10.246094 -4.222656 C 10.246094 -2.730469 8.988281 -2.058594 6.996094 -2.058594 L 6.996094 0.238281 L 7.210938 0.238281 C 10.9375 0.238281 12.777344 -2.035156 12.777344 -4.332031 C 12.777344 -7.539062 10.246094 -8.359375 7.601562 -8.683594 Z M 1.300781 -1.40625 C 2.773438 -0.390625 4.613281 0.171875 6.605469 0.238281 L 6.605469 -2.058594 C 5.351562 -2.101562 3.769531 -2.492188 2.46875 -3.335938 C 2.359375 -3.421875 2.253906 -3.445312 2.1875 -3.445312 C 2.035156 -3.445312 1.949219 -3.335938 1.839844 -3.140625 L 1.167969 -2.058594 C 1.019531 -1.753906 0.976562 -1.601562 1.300781 -1.40625 Z M 7.105469 -13.105469 C 8.683594 -13.105469 9.769531 -12.691406 11.066406 -11.824219 C 11.175781 -11.761719 11.261719 -11.71875 11.328125 -11.71875 C 11.480469 -11.71875 11.585938 -11.847656 11.695312 -12.042969 L 12.34375 -13.105469 C 12.496094 -13.40625 12.539062 -13.582031 12.238281 -13.753906 C 10.699219 -14.707031 9.292969 -15.355469 7.105469 -15.398438 Z M 7.105469 -13.105469 "/></g></g></g></svg>